<svg xmlns="http://www.w3.org/2000/svg" version="1.1" xmlns:xlink="http://www.w3.org/1999/xlink" xmlns:svgjs="http://svgjs.dev/svgjs" width="150" height="50" viewBox="0 0 2000 590" class="mb-4"><g transform="matrix(1,0,0,1,-1.2120992037006317,-0.8291564523862576)"><svg viewBox="0 0 396 117" data-background-color="#ffffff" preserveAspectRatio="xMidYMid meet" height="590" width="2000" xmlns="http://www.w3.org/2000/svg" xmlns:xlink="http://www.w3.org/1999/xlink"><g id="tight-bounds" transform="matrix(1,0,0,1,0.24000469935938895,0.16442594055794757)"><svg viewBox="0 0 395.5199999999999 116.67114811888409" height="116.67114811888409" width="395.5199999999999"><g><svg viewBox="0 0 395.5199999999999 116.67114811888409" height="116.67114811888409" width="395.5199999999999"><g><svg viewBox="0 0 395.5199999999999 116.67114811888409" height="116.67114811888409" width="395.5199999999999"><g id="textblocktransform"><svg id="textblock" viewBox="0 0 395.5199999999999 116.67114811888409" height="116.67114811888409" width="395.5199999999999"><g><svg viewBox="0 0 395.5199999999999 116.67114811888409" height="116.67114811888409" width="395.5199999999999"><g><svg viewBox="0 0 395.5199999999999 116.67114811888409" height="116.67114811888409" width="395.5199999999999"><g transform="matrix(1,0,0,1,0,0)"><svg width="395.5199999999999" viewBox="2.1911805611129997 -38.38 172.13881943888703 50.78" height="116.67114811888409" data-palette-color="#b81d33"><path id="text-0" d="M13.38 0.59L13.38 0.59Q10.28 0.59 8.24 0.02 6.2-0.54 4.97-1.38 3.74-2.22 3.08-3.05L3.08-3.05Q2.86-3.37 2.69-3.66 2.51-3.96 2.44-4.32L2.44-4.32Q2.34-4.81 2.25-5.6 2.15-6.4 2.22-7.45L2.22-7.45Q2.25-7.89 2.39-8.06L2.39-8.06Q2.56-8.25 2.95-8.35L2.95-8.35Q3.66-8.52 4.8-8.65 5.93-8.79 6.42-8.79L6.42-8.79Q6.93-8.79 7.25-8.59 7.57-8.4 8.01-7.93L8.01-7.93Q8.5-7.42 9.69-6.63 10.89-5.83 13.38-5.83L13.38-5.83Q15.77-5.83 16.99-6.84 18.21-7.84 18.21-9.62L18.21-9.62Q18.21-10.57 17.64-11.41 17.07-12.26 15.55-13.1 14.04-13.94 11.23-14.87L11.23-14.87Q6.59-16.43 4.54-18.75 2.49-21.07 2.49-25.2L2.49-25.2Q2.49-28.61 4.15-30.91 5.81-33.2 8.74-34.38 11.67-35.55 15.5-35.55L15.5-35.55Q18.46-35.55 20.4-34.85 22.34-34.16 23.41-33.29 24.49-32.42 24.8-31.88L24.8-31.88Q25-31.57 25.06-31.41 25.12-31.25 25.15-30.98L25.15-30.98Q25.22-30.22 25.2-29.3 25.17-28.37 25.02-27.2L25.02-27.2Q24.95-26.81 24.76-26.66L24.76-26.66Q24.58-26.54 24.22-26.54L24.22-26.54Q21.85-26.49 20.56-26.78L20.56-26.78Q20.04-26.9 19.87-27.03 19.7-27.15 19.43-27.42L19.43-27.42Q19.04-27.88 18.2-28.5 17.36-29.13 15.5-29.13L15.5-29.13Q12.94-29.13 11.87-27.97 10.79-26.81 10.79-25.37L10.79-25.37Q10.79-23.66 12.38-22.69 13.96-21.73 17.38-20.51L17.38-20.51Q20.24-19.51 22.29-18.33 24.34-17.16 25.43-15.33 26.51-13.5 26.51-10.5L26.51-10.5Q26.51-6.76 24.79-4.3 23.07-1.83 20.1-0.62 17.14 0.59 13.38 0.59ZM47.56-25.61L47.56-25.61Q51.12-25.61 53.43-24.01 55.73-22.41 56.87-19.62 58.01-16.82 58.01-13.21L58.01-13.21Q58.01-9.3 56.67-6.18 55.34-3.05 52.76-1.22 50.17 0.61 46.34 0.61L46.34 0.61Q44.36 0.61 43.08 0.16 41.79-0.29 41.03-0.92 40.26-1.54 39.82-2.05L39.82-2.05 39.72-2.05 39.72 8.35Q39.72 8.94 39.48 9.25L39.48 9.25Q38.45 10.6 36.47 12.16L36.47 12.16Q36.13 12.4 35.86 12.4L35.86 12.4Q35.57 12.4 35.25 12.16L35.25 12.16Q34.2 11.35 33.48 10.64 32.76 9.94 32.25 9.25L32.25 9.25Q32 8.94 32 8.35L32 8.35 32-21.75Q32-22.34 32.25-22.66L32.25-22.66Q32.76-23.34 33.48-24.05 34.2-24.76 35.25-25.56L35.25-25.56Q35.57-25.81 35.91-25.81L35.91-25.81Q36.23-25.81 36.57-25.56L36.57-25.56Q37.6-24.76 38.33-24.02 39.06-23.29 39.62-22.51L39.62-22.51 39.74-22.51Q40.16-23.02 41.01-23.75 41.87-24.49 43.44-25.05 45.02-25.61 47.56-25.61ZM44.55-5.62L44.55-5.62Q47.19-5.62 48.64-7.46 50.1-9.3 50.1-12.79L50.1-12.79Q50.1-19.38 44.68-19.38L44.68-19.38Q42.38-19.38 41.28-18.44 40.18-17.5 39.72-16.46L39.72-16.46 39.72-11.16Q39.72-8.79 40.94-7.2 42.16-5.62 44.55-5.62ZM75.51 0.61L75.51 0.61Q71.38 0.61 68.33-0.72 65.28-2.05 63.59-4.86 61.91-7.67 61.91-12.11L61.91-12.11Q61.91-18.77 65.33-22.19 68.75-25.61 74.41-25.61L74.41-25.61Q78.1-25.61 80.65-24.29 83.2-22.97 84.53-20.65 85.86-18.33 85.86-15.36L85.86-15.36Q85.86-12.45 84.37-11.3 82.88-10.16 80.02-10.16L80.02-10.16 69.55-10.16Q69.75-7.64 71.39-6.32 73.04-5 75.87-5L75.87-5Q78.12-5 79.47-5.68 80.83-6.35 81.37-6.74L81.37-6.74Q81.83-7.08 82.42-7.06L82.42-7.06Q82.88-7.06 83.75-6.87 84.61-6.69 85.47-6.2L85.47-6.2Q86.08-5.88 86.08-5.32L86.08-5.32Q86.08-5 85.96-4.42L85.96-4.42Q85.88-4.08 85.71-3.43 85.54-2.78 85.27-2.22L85.27-2.22Q85.13-1.95 84.81-1.71L84.81-1.71Q84.32-1.37 83.23-0.81 82.15-0.24 80.27 0.18 78.39 0.61 75.51 0.61ZM69.5-15.16L69.5-15.16 77.46-15.16Q78.71-15.16 78.71-16.31L78.71-16.31Q78.71-18.04 77.62-19.23 76.53-20.41 74.36-20.41L74.36-20.41Q71.99-20.41 70.88-18.9 69.77-17.38 69.5-15.16ZM115.4-15.55L115.4-15.55 115.4-1.29Q115.4-0.56 115.09-0.28 114.79 0 114.06 0L114.06 0 109.03 0Q108.29 0 107.99-0.28 107.68-0.56 107.68-1.29L107.68-1.29 107.68-14.28Q107.68-16.94 106.56-18.16 105.44-19.38 103.51-19.38L103.51-19.38Q101.58-19.38 100.54-18.55 99.5-17.72 98.94-16.46L98.94-16.46 98.94-1.29Q98.94-0.56 98.64-0.28 98.33 0 97.6 0L97.6 0 92.57 0Q91.84 0 91.53-0.28 91.23-0.56 91.23-1.29L91.23-1.29 91.23-21.75Q91.23-22.34 91.47-22.66L91.47-22.66Q91.98-23.34 92.7-24.05 93.43-24.76 94.47-25.56L94.47-25.56Q94.79-25.81 95.09-25.81L95.09-25.81Q95.35-25.81 95.7-25.56L95.7-25.56Q96.72-24.76 97.45-24.02 98.19-23.29 98.75-22.51L98.75-22.51 98.87-22.51Q99.28-23.05 100.11-23.77 100.94-24.49 102.45-25.05 103.95-25.61 106.29-25.61L106.29-25.61Q108.59-25.61 110.66-24.68 112.74-23.75 114.07-21.56 115.4-19.36 115.4-15.55ZM130.82 0.61L130.82 0.61Q127.58 0.61 125.3-0.99 123.01-2.59 121.83-5.41 120.64-8.23 120.64-11.91L120.64-11.91Q120.64-16.77 122.37-19.79 124.09-22.8 127.22-24.22 130.36-25.63 134.63-25.63L134.63-25.63Q136.1-25.63 137.06-25.49 138.03-25.34 138.44-25.22L138.44-25.22 138.44-34.33Q138.44-34.91 138.69-35.23L138.69-35.23Q139.71-36.57 141.69-38.13L141.69-38.13Q142.03-38.38 142.3-38.38L142.3-38.38Q142.62-38.38 142.91-38.13L142.91-38.13Q143.96-37.33 144.68-36.62 145.4-35.91 145.91-35.23L145.91-35.23Q146.16-34.91 146.16-34.33L146.16-34.33 146.16-1.12Q146.16-0.66 145.84-0.33 145.52 0 145.03 0L145.03 0 141.4 0Q141.01 0 140.7-0.11 140.4-0.22 140.13-0.54L140.13-0.54 138.61-2.49 138.44-2.49Q138.12-2 137.31-1.26 136.49-0.51 134.94 0.05 133.39 0.61 130.82 0.61ZM133.19-5.64L133.19-5.64Q135.39-5.64 136.65-6.47 137.91-7.3 138.44-8.57L138.44-8.57 138.44-18.8Q138.05-19.04 137.15-19.38 136.24-19.73 134.61-19.73L134.61-19.73Q131.58-19.73 130.07-17.75 128.55-15.77 128.55-12.43L128.55-12.43Q128.55-8.96 129.82-7.3 131.09-5.64 133.19-5.64ZM159.22 0.61L159.22 0.61Q155.63 0.61 153.52-1.4 151.4-3.42 151.4-6.96L151.4-6.96Q151.4-8.79 152.07-10.36 152.75-11.94 154.42-13.15 156.09-14.36 159.11-15.09 162.12-15.82 166.81-15.94L166.81-15.94Q166.81-18.16 165.7-19.14 164.59-20.12 162.37-20.12L162.37-20.12Q160.36-20.12 159.09-19.43 157.82-18.75 157.51-18.51L157.51-18.51Q157.17-18.21 156.68-18.29L156.68-18.29Q156.02-18.38 155.27-18.63 154.53-18.87 153.67-19.19L153.67-19.19Q153.55-19.24 153.41-19.35 153.26-19.46 153.23-19.68L153.23-19.68Q153.23-19.8 153.26-19.98 153.28-20.17 153.38-20.65L153.38-20.65Q153.48-21.14 153.67-21.86 153.87-22.58 154.04-22.97L154.04-22.97Q154.26-23.39 154.77-23.75L154.77-23.75Q155.19-24.1 157.29-24.85 159.39-25.61 163.37-25.61L163.37-25.61Q174.33-25.61 174.33-14.94L174.33-14.94 174.33-1.12Q174.33-0.66 174.07-0.33 173.82 0 173.21 0L173.21 0 169.54 0Q169.15 0 168.85-0.11 168.54-0.22 168.27-0.54L168.27-0.54 166.76-2.49 166.59-2.49Q165.47-0.85 163.57-0.12 161.68 0.61 159.22 0.61ZM161.9-5.05L161.9-5.05Q164.15-5.05 165.3-6.2 166.44-7.35 166.76-8.57L166.76-8.57 166.76-11.28Q163.37-11.28 161.67-10.75 159.97-10.23 159.41-9.39 158.85-8.54 158.85-7.57L158.85-7.57Q158.85-6.15 159.73-5.6 160.61-5.05 161.9-5.05Z" opacity="1" transform="matrix(1,0,0,1,0,0)" fill="#b81d33" class="wordmark-text-0" data-fill-palette-color="primary"></path></svg></g></svg></g></svg></g></svg></g></svg></g><g></g></svg></g><defs></defs></svg><rect width="395.5199999999999" height="116.67114811888409" fill="none" stroke="none" visibility="hidden"></rect></g></svg></g></svg>